<svg width="24" height="24" viewBox="0 0 24 24" fill="none" xmlns="http://www.w3.org/2000/svg">
  <path d="M12 18.5C12.9 18.5 13.7125 18.2625 14.4375 17.7875C15.1625 17.3125 15.7083 16.6917 16.075 15.925C15.8083 15.6917 15.5417 15.4458 15.275 15.1875C15.0083 14.9292 14.7417 14.6583 14.475 14.375C14.375 15.0083 14.0958 15.5208 13.6375 15.9125C13.1792 16.3042 12.6333 16.5 12 16.5C11.3 16.5 10.7083 16.2583 10.225 15.775C9.74167 15.2917 9.5 14.7 9.5 14C9.5 13.3 9.74583 12.7125 10.2375 12.2375C10.7292 11.7625 11.325 11.5167 12.025 11.5C11.825 11.2 11.6333 10.8958 11.45 10.5875C11.2667 10.2792 11.0917 9.96667 10.925 9.65C9.94167 9.9 9.125 10.425 8.475 11.225C7.825 12.025 7.5 12.95 7.5 14C7.5 15.25 7.9375 16.3125 8.8125 17.1875C9.6875 18.0625 10.75 18.5 12 18.5ZM9 4H10.25C10.1667 4.31667 10.1042 4.64167 10.0625 4.975C10.0208 5.30833 10 5.65 10 6H9.875L8.05 8H4V20H20V15.875C20.3333 15.575 20.6667 15.2625 21 14.9375C21.3333 14.6125 21.6667 14.2833 22 13.95V20C22 20.55 21.8042 21.0208 21.4125 21.4125C21.0208 21.8042 20.55 22 20 22H4C3.45 22 2.97917 21.8042 2.5875 21.4125C2.19583 21.0208 2 20.55 2 20V8C2 7.45 2.19583 6.97917 2.5875 6.5875C2.97917 6.19583 3.45 6 4 6H7.15L9 4ZM18 15C20.0167 13.2833 21.5208 11.6917 22.5125 10.225C23.5042 8.75833 24 7.4 24 6.15C24 4.26667 23.3958 2.77083 22.1875 1.6625C20.9792 0.554167 19.5833 0 18 0C16.4167 0 15.0208 0.554167 13.8125 1.6625C12.6042 2.77083 12 4.26667 12 6.15C12 7.4 12.4958 8.75833 13.4875 10.225C14.4792 11.6917 15.9833 13.2833 18 15ZM18 12.325C16.2667 10.6917 15.1667 9.375 14.7 8.375C14.2333 7.375 14 6.63333 14 6.15C14 4.8 14.4208 3.77083 15.2625 3.0625C16.1042 2.35417 17.0167 2 18 2C18.9833 2 19.8958 2.35417 20.7375 3.0625C21.5792 3.77083 22 4.8 22 6.15C22 6.63333 21.7667 7.375 21.3 8.375C20.8333 9.375 19.7333 10.6917 18 12.325ZM16.15 9L16.85 6.725L15 5.25H17.275L18 3L18.725 5.25H21L19.15 6.725L19.85 9L18 7.6L16.15 9Z" fill="#E3E3E3"/>
</svg>
