<svg width="93" height="32" viewBox="0 0 93 32" fill="none" xmlns="http://www.w3.org/2000/svg">
<path d="M38.8338 11.331C38.8338 10.9909 38.5004 10.9559 38.3337 10.9809C34.3727 10.5608 30.5485 11.3393 29.1315 11.7811C27.171 17.2624 28.9148 19.2662 30.0317 19.583C34.2327 21.1583 40.4592 17.9326 40.8843 17.7575C41.2244 17.6175 41.176 17.3491 41.1093 17.2324C40.9426 16.8657 40.5742 16.0721 40.4342 15.8321C40.2941 15.592 39.9757 15.6654 39.834 15.7321C35.1579 17.8826 33.0824 17.6575 32.0072 17.7075C31.147 17.7475 30.7986 17.3741 30.7319 17.1824C30.4118 16.0021 30.7486 14.3401 30.9569 13.6566C33.4325 12.9564 38.1586 13.2065 38.4837 13.2315C38.7438 13.2515 38.8088 13.0564 38.8088 12.9564C38.8171 12.5563 38.8338 11.6711 38.8338 11.331Z" fill="white"/>
<path d="M39.9841 11.7561C40.0041 11.456 40.3258 11.3477 40.4842 11.331L43.3599 11.5061C43.4265 10.7559 43.5549 9.1605 43.5349 8.78041C43.5149 8.40032 43.7266 8.3053 43.835 8.3053C44.2851 8.3303 45.2603 8.38032 45.5604 8.38032C45.8605 8.38032 45.9188 8.68039 45.9105 8.83042C45.7354 12.3563 45.3903 19.4929 45.4104 19.833C45.4304 20.1731 45.1686 20.2581 45.0353 20.2581H43.5099C43.0898 20.2581 43.0014 19.8914 43.0098 19.708L43.2098 13.8066C42.368 13.7566 40.6092 13.6516 40.3091 13.6316C40.0091 13.6116 39.9341 13.3565 39.9341 13.2315C39.9424 12.8647 39.9641 12.0562 39.9841 11.7561Z" fill="white"/>
<path d="M29.8067 22.2586C29.7867 21.9385 30.0484 21.8252 30.1818 21.8085C37.0584 19.858 42.7847 20.6332 44.8102 22.2086C47.0607 24.134 45.1853 26.7597 44.9853 27.0097C44.8252 27.2098 44.5185 27.1431 44.3851 27.0847C44.1017 26.918 43.4549 26.5446 43.1348 26.3846C42.8147 26.2245 42.9181 25.9011 43.0098 25.7594L43.3099 25.3093C44.05 24.2891 43.2682 23.7506 42.7847 23.6089C38.1086 22.0335 31.082 23.984 30.5318 24.084C30.0917 24.164 29.9484 23.9006 29.9317 23.7589C29.8984 23.3922 29.8267 22.5787 29.8067 22.2586Z" fill="white"/>
<path fill-rule="evenodd" clip-rule="evenodd" d="M18.0787 18.9328C16.0199 18.9995 11.7622 19.988 11.2021 23.4089C10.5019 27.6849 21.5545 29.4103 24.6052 25.5094C27.656 21.6084 22.2297 18.6827 18.0787 18.9328ZM13.5026 23.5339C14.0227 21.7335 16.9034 21.25 18.2788 21.2333C22.5598 21.3334 23.38 22.7254 23.2549 23.4089C23.3049 24.134 21.1294 25.6094 17.3785 25.3343C14.3778 25.1143 13.5443 24.0423 13.5026 23.5339Z" fill="white"/>
<path d="M13.8527 8.3303C13.636 8.24694 13.1525 8.22527 12.9525 8.80541C12.7024 9.53058 9.32664 16.3822 4.0754 21.1083C4.00872 21.1833 3.92536 21.3884 4.12541 21.6084C4.32546 21.8285 4.94227 22.3669 5.22567 22.6087C5.30069 22.6753 5.51074 22.7637 5.7508 22.5837C6.05087 22.3586 10.2269 18.2076 11.8522 15.532C12.8025 16.0655 15.6281 17.2524 19.329 17.7325C19.4374 17.7409 19.6591 17.6725 19.6791 17.3324L19.9041 15.9571C19.9291 15.8487 19.9191 15.612 19.6791 15.532C19.379 15.432 15.003 14.7068 13.0525 13.6065C13.5776 12.6813 14.7479 10.5308 15.228 9.33053C15.2697 9.21384 15.298 8.94544 15.078 8.80541C14.8579 8.66538 14.1695 8.43032 13.8527 8.3303Z" fill="white"/>
<path d="M18.0037 11.431C17.8703 11.4394 17.6036 11.516 17.6036 11.7561C17.6036 11.9962 17.5869 12.9397 17.5786 13.3815C17.5703 13.5065 17.6436 13.7516 18.0037 13.7316C18.3638 13.7116 21.5045 13.8899 23.0299 13.9816L23.1299 19.1328C23.1382 19.2829 23.2499 19.583 23.63 19.583C24.0101 19.583 24.8386 19.5663 25.2054 19.5579C25.2971 19.5496 25.4805 19.4679 25.4805 19.2079C25.4805 18.9478 25.4138 14.3317 25.3804 12.0562C25.3721 11.9228 25.2554 11.6611 24.8553 11.6811C24.4552 11.7011 20.1209 11.5227 18.0037 11.431Z" fill="white"/>
<path fill-rule="evenodd" clip-rule="evenodd" d="M31.7821 3.05408C31.5738 2.97906 31.117 2.92405 30.9569 3.30414C30.7969 3.68423 30.5068 4.24603 30.3818 4.47941C28.248 4.121 23.6402 4.37439 22.2799 8.25531C22.1465 9.54728 22.9801 11.7061 27.3811 10.0057C28.0896 9.73065 29.8767 8.71041 31.357 6.82997C32.2072 7.03002 34.4728 7.91022 36.7333 9.83068C36.8667 9.93904 37.1884 10.1007 37.4085 9.88069C37.6285 9.66064 38.0669 9.02215 38.2587 8.73042C38.3087 8.64707 38.3637 8.43535 38.1836 8.25531C37.9586 8.03025 33.8326 5.15457 32.5073 5.02954L32.9324 4.15434C32.9991 4.02097 33.0774 3.72424 32.8574 3.60421C32.6373 3.48418 32.0489 3.18744 31.7821 3.05408ZM24.3304 8.58038C24.6888 7.8052 26.1158 6.29484 28.9565 6.45488C28.373 7.18839 26.6309 8.6404 24.3304 8.58038Z" fill="white"/>
<path d="M68.2304 10.1731C68.1504 9.81304 68.4638 9.63967 68.6305 9.59799C72.4064 8.42271 77.0074 7.99761 78.2577 10.2231C79.258 12.0036 77.4409 13.799 76.4073 14.4741C76.2573 14.5158 76.0472 14.5792 76.4073 14.4991C76.7674 14.4191 76.8741 14.6158 76.8824 14.7242C76.8741 15.166 76.8524 16.1145 76.8324 16.3746C76.8124 16.6347 76.424 16.6663 76.2323 16.6497C74.6919 16.4696 72.3563 16.658 71.3811 16.7747C70.4409 19.2753 71.0894 20.6506 71.5312 21.0257C73.3566 22.8761 77.7076 21.4008 78.5328 20.8506C79.193 20.4105 79.558 20.784 79.6581 21.0257C79.7248 21.2007 79.9131 21.6508 80.1332 22.0509C80.3532 22.451 79.9415 22.7678 79.7081 22.8761C78.8912 23.3929 76.6574 24.3965 74.2568 24.2765C71.2561 24.1264 69.8808 23.3262 68.7805 20.9257C67.9003 19.0052 69.0639 16.1245 69.7557 14.9242C70.6893 14.6909 72.9315 14.009 74.4318 13.1488C75.9322 12.2886 76.2906 11.5901 76.2823 11.3484C75.5821 10.2982 69.9808 11.5985 69.2556 11.8235C68.6755 12.0036 68.4804 11.6985 68.4554 11.5234C68.4138 11.2234 68.3104 10.5332 68.2304 10.1731Z" fill="white"/>
<path d="M79.1079 12.4737C79.1079 12.1136 79.458 12.0569 79.6331 12.0736L82.1837 12.1736C82.2504 11.3151 82.3837 9.52298 82.3837 9.22291C82.3837 8.92283 82.6004 8.84782 82.7088 8.84782C83.1672 8.86449 84.1491 8.89783 84.4092 8.89783C84.6693 8.89783 84.7176 9.11455 84.7093 9.22291C84.5342 13.1738 84.1891 21.1307 84.2091 21.3508C84.2292 21.5708 83.9841 21.6758 83.8591 21.7009C83.559 21.7092 82.8438 21.7209 82.3837 21.7009C81.9236 21.6808 81.8253 21.3924 81.8336 21.2507L81.9086 18.6501C81.2084 18.6918 79.7281 18.7752 79.408 18.7752C79.0879 18.7752 78.9912 18.5751 78.9829 18.4751C78.9912 18.15 79.0029 17.3948 78.9829 16.9747C78.9629 16.5546 79.2746 16.4663 79.433 16.4746L82.0086 16.3496L82.0836 14.4992C81.3835 14.4575 79.8931 14.3791 79.533 14.3991C79.173 14.4191 79.0663 14.1574 79.0579 14.024C79.0746 13.6573 79.1079 12.8338 79.1079 12.4737Z" fill="white"/>
<path d="M86.3096 9.39795C86.2896 8.97785 86.618 8.85615 86.7848 8.84782L88.2601 8.89783C88.6602 8.87782 88.7436 9.17289 88.7352 9.32293C88.7269 13.5239 88.7152 21.9959 88.7352 22.276C88.7552 22.5561 88.5102 22.6094 88.3851 22.6011C88.0851 22.6094 87.3649 22.6311 86.8848 22.6511C86.4047 22.6711 86.3013 22.2426 86.3096 22.0259C86.2096 20.5756 86.3347 9.92307 86.3096 9.39795Z" fill="white"/>
<path d="M78.6578 25.3267C78.6578 24.9466 79.0246 24.8683 79.208 24.8766C82.5087 24.4265 87.885 24.6265 88.3351 24.6265C88.6952 24.6265 88.7686 24.8599 88.7602 24.9766V26.3269C88.8002 26.8871 88.3101 26.9604 88.0601 26.9271C87.0098 26.7771 79.558 27.1771 79.1079 27.2022C78.7479 27.2222 78.6578 26.9604 78.6578 26.8271V25.3267Z" fill="white"/>
<path d="M49.8262 21.5759C49.8862 21.1958 50.268 21.1841 50.4514 21.2258C50.7431 21.2592 51.4266 21.3458 51.8267 21.4259C52.2268 21.5059 52.2101 21.8593 52.1518 22.026C51.9601 22.5428 51.6917 23.7064 52.1518 24.2265C52.7269 24.8767 58.6533 26.077 66.4302 21.951C66.8102 21.7509 67.0386 22.0343 67.1053 22.201C67.222 22.4594 67.4903 23.1111 67.6304 23.4512L67.6304 23.4513C67.7705 23.7914 67.4554 24.0598 67.2804 24.1515C62.1291 26.7521 59.6035 27.0272 56.2277 27.2272C52.8519 27.4273 50.7014 26.5021 49.9513 25.1517C49.2011 23.8014 49.7512 22.051 49.8262 21.5759Z" fill="white"/>
<path fill-rule="evenodd" clip-rule="evenodd" d="M59.4103 8.99167C59.2044 8.91018 58.7501 8.84199 58.5797 9.22107C58.4093 9.60016 58.1041 10.159 57.9727 10.391C55.8532 9.9701 51.2476 10.0978 49.781 13.9761C49.6116 15.2761 50.3829 17.4776 54.8228 15.884C55.5377 15.6262 57.3498 14.6463 58.88 12.7899C59.7229 13.0154 61.9592 13.9665 64.1613 15.9671C64.2913 16.0802 64.6079 16.2523 64.8337 16.0363C65.0595 15.8204 65.515 15.1883 65.7145 14.8993C65.7667 14.8165 65.8276 14.6044 65.653 14.4178C65.4347 14.1844 61.3977 11.1681 60.0785 11.0052L60.5274 10.1338C60.5977 10.0011 60.6842 9.70386 60.4679 9.57664C60.2517 9.44941 59.6727 9.13365 59.4103 8.99167ZM51.8182 14.3611C52.1977 13.5888 53.6643 12.1044 56.4948 12.3448C55.8919 13.0687 54.1125 14.4855 51.8182 14.3611Z" fill="white"/>
<path d="M48.9761 18.2001C48.9761 17.86 49.3428 17.775 49.5262 17.775C61.229 15.9496 66.1051 17.4499 66.4302 17.5249C66.6903 17.5849 66.7053 17.85 66.6803 17.975C66.6386 18.2918 66.5552 19.0153 66.5552 19.3754C66.5552 19.7355 66.2552 19.7755 66.1051 19.7505C62.9844 19.2703 60.4038 19.1837 59.5036 19.2003C59.4952 20.1756 59.4836 22.196 59.5036 22.4761C59.5236 22.7562 59.3118 22.8262 59.2035 22.8262C58.8284 22.8345 57.9782 22.8512 57.5781 22.8512C57.178 22.8512 57.1113 22.4511 57.128 22.2511L57.178 19.2753C56.1778 19.1753 50.5264 19.9505 49.7763 20.1005C49.1761 20.2206 49.0261 19.9672 49.0261 19.8255C49.0094 19.4254 48.9761 18.5402 48.9761 18.2001Z" fill="white"/>
</svg>
