<svg width="200" height="200" viewBox="0 0 200 200" fill="none" xmlns="http://www.w3.org/2000/svg">
<path d="M103.241 115.68C102.994 114.566 103.963 114.03 104.479 113.901C116.157 110.266 130.388 108.951 134.255 115.835C137.349 121.342 131.729 126.895 128.532 128.983C128.068 129.112 127.418 129.308 128.532 129.06C129.646 128.813 129.976 129.421 130.002 129.756C129.976 131.123 129.909 134.057 129.847 134.861C129.785 135.665 128.584 135.763 127.991 135.712C123.227 135.155 116.003 135.737 112.986 136.098C110.078 143.833 112.084 148.086 113.451 149.246C119.096 154.97 132.554 150.407 135.106 148.705C137.148 147.344 138.277 148.499 138.587 149.246C138.793 149.788 139.375 151.18 140.056 152.417C140.737 153.655 139.463 154.635 138.741 154.97C136.215 156.568 129.306 159.672 121.881 159.301C112.6 158.837 108.346 156.362 104.943 148.937C102.22 142.997 105.819 134.087 107.959 130.375C110.847 129.653 117.782 127.544 122.422 124.884C127.063 122.223 128.171 120.063 128.145 119.315C125.98 116.067 108.655 120.089 106.412 120.785C104.618 121.342 104.015 120.398 103.937 119.857C103.809 118.928 103.489 116.794 103.241 115.68Z" fill="white"/>
<path d="M136.885 122.796C136.885 121.682 137.968 121.507 138.509 121.558L146.398 121.867C146.604 119.212 147.017 113.669 147.017 112.741C147.017 111.813 147.687 111.581 148.022 111.581C149.44 111.633 152.477 111.736 153.282 111.736C154.086 111.736 154.235 112.406 154.21 112.741C153.668 124.961 152.601 149.571 152.663 150.252C152.725 150.933 151.967 151.257 151.58 151.335C150.652 151.36 148.44 151.397 147.017 151.335C145.594 151.273 145.29 150.381 145.315 149.943L145.547 141.899C143.382 142.028 138.803 142.286 137.813 142.286C136.823 142.286 136.524 141.667 136.498 141.358C136.524 140.352 136.56 138.016 136.498 136.717C136.437 135.418 137.401 135.144 137.891 135.17L145.857 134.784L146.089 129.06C143.923 128.931 139.314 128.689 138.2 128.751C137.086 128.813 136.756 128.003 136.73 127.591C136.782 126.456 136.885 123.909 136.885 122.796Z" fill="white"/>
<path d="M159.16 113.283C159.098 111.983 160.113 111.607 160.629 111.581L165.192 111.736C166.43 111.674 166.687 112.586 166.662 113.051C166.636 126.044 166.6 152.247 166.662 153.114C166.724 153.98 165.966 154.145 165.579 154.119C164.651 154.145 162.423 154.212 160.938 154.274C159.453 154.336 159.134 153.01 159.16 152.34C158.85 147.854 159.237 114.907 159.16 113.283Z" fill="white"/>
<path d="M135.493 162.549C135.493 161.374 136.627 161.131 137.194 161.157C147.404 159.765 164.032 160.384 165.424 160.384C166.538 160.384 166.765 161.106 166.739 161.466V165.643C166.863 167.375 165.347 167.602 164.573 167.499C161.325 167.035 138.277 168.273 136.885 168.35C135.771 168.412 135.493 167.602 135.493 167.19V162.549Z" fill="white"/>
<path d="M46.3178 150.948C46.5034 149.772 47.6841 149.736 48.2513 149.865C49.1536 149.968 51.2676 150.236 52.5051 150.484C53.7426 150.731 53.691 151.825 53.5105 152.34C52.9176 153.939 52.0875 157.538 53.5105 159.146C55.2894 161.157 73.6194 164.87 97.6727 152.108C98.8483 151.489 99.5547 152.366 99.761 152.882C100.122 153.681 100.952 155.697 101.385 156.749C101.818 157.801 100.844 158.631 100.302 158.914C84.3699 166.958 76.5584 167.809 66.1173 168.427C55.6761 169.046 49.0247 166.184 46.7045 162.008C44.3842 157.831 46.0857 152.418 46.3178 150.948Z" fill="white"/>
<path d="M141.835 57.8285C141.835 56.7766 140.804 56.6683 140.288 56.7457C128.037 55.4463 116.209 57.8542 111.827 59.2206C105.763 76.1739 111.156 82.3716 114.611 83.3513C127.604 88.2238 146.862 78.2467 148.177 77.7053C149.229 77.2722 149.08 76.4421 148.873 76.0811C148.358 74.9468 147.218 72.4925 146.785 71.75C146.352 71.0075 145.367 71.2344 144.929 71.4406C130.466 78.092 124.047 77.3959 120.721 77.5506C118.06 77.6744 116.983 76.5194 116.776 75.9264C115.786 72.2759 116.828 67.1353 117.472 65.0212C125.129 62.8557 139.747 63.6291 140.752 63.7064C141.557 63.7683 141.758 63.165 141.758 62.8557C141.784 61.6182 141.835 58.8803 141.835 57.8285Z" fill="white"/>
<path d="M145.393 59.1433C145.455 58.2152 146.45 57.88 146.94 57.8285L155.834 58.3698C156.04 56.0496 156.437 51.1152 156.375 49.9396C156.314 48.764 156.968 48.4701 157.304 48.4701C158.696 48.5474 161.712 48.7021 162.64 48.7021C163.568 48.7021 163.749 49.6302 163.723 50.0943C163.181 60.9995 162.114 83.0728 162.176 84.1247C162.238 85.1765 161.428 85.4395 161.016 85.4395H156.298C154.999 85.4395 154.725 84.3051 154.751 83.738L155.37 65.4853C152.766 65.3306 147.326 65.0058 146.398 64.9439C145.47 64.882 145.238 64.0931 145.238 63.7064C145.264 62.5721 145.331 60.0714 145.393 59.1433Z" fill="white"/>
<path d="M113.915 91.6268C113.853 90.6369 114.662 90.2862 115.075 90.2347C136.344 84.202 154.055 86.5996 160.32 91.4722C167.281 97.4275 161.48 105.548 160.861 106.322C160.366 106.941 159.418 106.734 159.005 106.554C158.128 106.038 156.128 104.883 155.138 104.388C154.148 103.893 154.468 102.893 154.751 102.455L155.679 101.063C157.969 97.907 155.55 96.2416 154.055 95.8033C139.592 90.9308 117.859 96.9634 116.158 97.2728C114.796 97.5203 114.353 96.7056 114.301 96.2673C114.198 95.133 113.977 92.6168 113.915 91.6268Z" fill="white"/>
<path fill-rule="evenodd" clip-rule="evenodd" d="M77.6413 81.3404C71.2735 81.5466 58.1048 84.6042 56.3723 95.1846C54.2067 108.41 88.3918 113.747 97.8275 101.681C107.263 89.616 90.4801 80.567 77.6413 81.3404ZM63.4878 95.5713C65.0965 90.0027 74.0062 88.5074 78.2601 88.4558C91.501 88.7652 94.0378 93.0706 93.6511 95.1846C93.8058 97.4275 87.077 101.991 75.4757 101.14C66.1947 100.459 63.6167 97.1439 63.4878 95.5713Z" fill="white"/>
<path d="M64.5705 48.5475C63.9003 48.2896 62.405 48.2226 61.7862 50.0169C61.0128 52.2599 50.5717 73.4515 34.3299 88.0691C34.1236 88.3012 33.8658 88.9354 34.4846 89.616C35.1033 90.2966 37.0111 91.962 37.8876 92.7096C38.1196 92.9159 38.7693 93.1892 39.5118 92.6323C40.4399 91.9362 53.356 79.0975 58.3832 70.8219C61.3222 72.4719 70.0618 76.143 81.5084 77.628C81.8436 77.6538 82.5293 77.4424 82.5912 76.3905L83.2873 72.1367C83.3646 71.8016 83.3337 71.0694 82.5912 70.8219C81.6631 70.5125 68.1283 68.2696 62.0956 64.8666C63.7198 62.0049 67.3394 55.3535 68.8243 51.6411C68.9533 51.2802 69.0409 50.4501 68.3603 50.0169C67.6797 49.5838 65.5502 48.8568 64.5705 48.5475Z" fill="white"/>
<path d="M77.4093 58.1378C76.9968 58.1636 76.1718 58.4008 76.1718 59.1433C76.1718 59.8858 76.1203 62.8041 76.0945 64.1705C76.0687 64.5572 76.2956 65.3152 77.4093 65.2533C78.523 65.1914 88.2371 65.7431 92.955 66.0267L93.2644 81.9591C93.2901 82.4232 93.6356 83.3513 94.8112 83.3513C95.9868 83.3513 98.5494 83.2997 99.6837 83.2739C99.9673 83.2482 100.535 82.9955 100.535 82.1912C100.535 81.3868 100.328 67.1095 100.225 60.0714C100.199 59.6589 99.8384 58.8494 98.601 58.9113C97.3635 58.9731 83.9576 58.4214 77.4093 58.1378Z" fill="white"/>
<path fill-rule="evenodd" clip-rule="evenodd" d="M120.025 32.2283C119.38 31.9963 117.967 31.8261 117.472 33.0017C116.977 34.1773 116.08 35.9149 115.694 36.6368C109.094 35.5282 94.8422 36.3119 90.6348 48.3154C90.2223 52.3114 92.8004 58.9886 106.413 53.7293C108.604 52.8786 114.131 49.723 118.71 43.9069C121.34 44.5256 128.347 47.2481 135.338 53.1879C135.751 53.5231 136.746 54.0232 137.427 53.3426C138.107 52.662 139.463 50.6872 140.056 49.7849C140.211 49.5271 140.381 48.8723 139.824 48.3154C139.128 47.6193 126.367 38.725 122.268 38.3383L123.582 35.6313C123.789 35.2188 124.031 34.3011 123.35 33.9298C122.67 33.5586 120.85 32.6408 120.025 32.2283ZM96.9769 49.3208C98.0854 46.9232 102.499 42.2518 111.285 42.7468C109.48 45.0155 104.092 49.5065 96.9769 49.3208Z" fill="white"/>
<path fill-rule="evenodd" clip-rule="evenodd" d="M75.9607 112.026C75.324 111.774 73.9188 111.563 73.3918 112.735C72.8648 113.908 71.9207 115.636 71.5145 116.354C64.9589 115.052 50.7139 115.447 46.1779 127.442C45.654 131.463 48.0394 138.272 61.772 133.343C63.9829 132.546 69.5878 129.515 74.3206 123.774C76.9276 124.471 83.8443 127.413 90.6553 133.6C91.0575 133.95 92.0366 134.482 92.735 133.815C93.4334 133.147 94.8422 131.192 95.4593 130.298C95.6209 130.042 95.8091 129.386 95.269 128.808C94.5938 128.087 82.1077 118.757 78.0276 118.253L79.4158 115.558C79.6332 115.148 79.9008 114.229 79.232 113.835C78.5632 113.442 76.7725 112.465 75.9607 112.026ZM52.479 128.633C53.6527 126.244 58.1886 121.653 66.9432 122.397C65.0785 124.636 59.575 129.018 52.479 128.633Z" fill="white"/>
<path d="M43.6882 140.507C43.6882 139.455 44.8226 139.192 45.3898 139.192C81.5857 133.546 96.6674 138.187 97.6728 138.419C98.4772 138.604 98.5236 139.424 98.4463 139.811C98.3174 140.79 98.0595 143.028 98.0595 144.142C98.0595 145.256 97.1314 145.379 96.6674 145.302C87.0151 143.817 79.0335 143.549 76.2491 143.601C76.2234 146.617 76.1873 152.866 76.2491 153.732C76.311 154.599 75.6562 154.815 75.321 154.815C74.1609 154.841 71.5313 154.892 70.2938 154.892C69.0564 154.892 68.8501 153.655 68.9017 153.036L69.0564 143.833C65.9627 143.523 48.4834 145.921 46.1632 146.385C44.307 146.756 43.8429 145.972 43.8429 145.534C43.7914 144.297 43.6882 141.559 43.6882 140.507Z" fill="white"/>
</svg>
