<svg width="24" height="24" viewBox="0 0 24 24" fill="none" xmlns="http://www.w3.org/2000/svg">
<path d="M12 4C15.866 4 19 7.13401 19 11C19 13.1742 18.0084 15.1165 16.4531 16.4004L19.2598 20.3096L18.0938 21.1475L15.2568 17.1953C14.2837 17.7079 13.1763 18 12 18C8.13401 18 5 14.866 5 11C5 7.13401 8.13401 4 12 4ZM12 5.22461C8.81056 5.22461 6.22461 7.81056 6.22461 11C6.22461 14.1894 8.81056 16.7754 12 16.7754C15.1894 16.7754 17.7754 14.1894 17.7754 11C17.7754 7.81056 15.1894 5.22461 12 5.22461Z" fill="#AEAEAE"/>
</svg>
